<?xml version="1.0" encoding="utf-8"?>
<!-- Generator: Adobe Illustrator 26.2.1, SVG Export Plug-In . SVG Version: 6.00 Build 0)  -->
<svg version="1.1" id="Ebene_1" xmlns="http://www.w3.org/2000/svg" xmlns:xlink="http://www.w3.org/1999/xlink" x="0px" y="0px"
	 viewBox="0 0 835.8 312.8" style="enable-background:new 0 0 835.8 312.8;" xml:space="preserve">
<style type="text/css">
	.st0{fill:#123274;}
	.st1{fill:none;}
	.st2{fill:#C9E1F6;}
</style>
<g>
	<g>
		<g>
			<path class="st0" d="M465.6,192.9c-0.4,1.8-1.2,3.5-2.5,5c-1.3,1.6-3.1,2.9-5.5,4s-5.6,1.6-9.6,1.6c-1.7,0-3.5-0.2-5.3-0.6
				c-1.8-0.4-3.4-1.1-4.9-2s-2.7-2.1-3.7-3.5s-1.5-3.1-1.7-5.1h9.6c0.5,1.8,1.3,3.1,2.6,3.8c1.3,0.7,2.8,1.1,4.5,1.1
				c2.7,0,4.7-0.8,5.9-2.4c1.2-1.6,1.8-3.7,1.8-6.2V184h-0.1c-1,1.9-2.5,3.2-4.4,4.1c-1.9,0.9-3.9,1.3-6.1,1.3
				c-2.6,0-4.9-0.5-6.8-1.4s-3.5-2.2-4.7-3.8s-2.1-3.5-2.7-5.6s-0.8-4.4-0.8-6.8c0-2.3,0.3-4.4,1-6.5s1.6-4,2.9-5.6s2.8-2.9,4.7-3.8
				c1.9-0.9,4-1.4,6.5-1.4c2.3,0,4.3,0.4,6.1,1.3c1.7,0.9,3.2,2.3,4.4,4.3h0.1v-4.7h9.1v32.8C466.1,189.5,465.9,191.1,465.6,192.9
				 M452.4,181.3c1-0.5,1.9-1.3,2.6-2.2s1.2-1.9,1.5-3.1c0.3-1.2,0.5-2.4,0.5-3.6c0-1.4-0.1-2.8-0.4-4.1s-0.7-2.4-1.4-3.4
				c-0.6-1-1.5-1.8-2.5-2.4c-1-0.6-2.4-0.9-3.9-0.9c-1.4,0-2.5,0.3-3.5,0.8s-1.8,1.3-2.4,2.2c-0.7,0.9-1.1,2-1.4,3.2
				s-0.4,2.5-0.4,3.8s0.1,2.5,0.4,3.8c0.2,1.2,0.7,2.4,1.3,3.4c0.6,1,1.4,1.8,2.4,2.4c1,0.6,2.2,0.9,3.7,0.9
				C450.1,182.1,451.3,181.8,452.4,181.3 M401.5,155.3v4.9h0.2c1.2-2,2.8-3.5,4.7-4.4c1.9-0.9,3.9-1.4,6-1.4c2.6,0,4.7,0.4,6.3,1.1
				c1.6,0.7,2.9,1.7,3.9,2.9c0.9,1.2,1.6,2.8,2,4.5c0.4,1.8,0.6,3.8,0.6,5.9v21.6h-9.6v-19.8c0-2.9-0.5-5-1.4-6.5
				c-0.9-1.4-2.5-2.1-4.8-2.1c-2.6,0-4.5,0.8-5.7,2.3c-1.2,1.6-1.8,4.1-1.8,7.7v18.4h-9.6v-35L401.5,155.3L401.5,155.3z
				 M375.6,190.4v-4.9h-0.2c-1.2,2-2.8,3.5-4.7,4.4c-1.9,0.9-3.9,1.4-6,1.4c-2.6,0-4.7-0.3-6.3-1c-1.6-0.7-2.9-1.6-3.9-2.9
				c-0.9-1.2-1.6-2.8-2-4.5c-0.4-1.8-0.6-3.8-0.6-5.9v-21.6h9.6v19.8c0,2.9,0.5,5,1.4,6.5c0.9,1.4,2.5,2.1,4.8,2.1
				c2.6,0,4.5-0.8,5.7-2.3c1.2-1.6,1.8-4.1,1.8-7.7v-18.4h9.6v35L375.6,190.4L375.6,190.4z M347.3,155.3v6.4h-7v17.4
				c0,1.6,0.3,2.7,0.8,3.3c0.5,0.5,1.6,0.8,3.3,0.8c0.5,0,1.1,0,1.6-0.1c0.5,0,1-0.1,1.4-0.2v7.5c-0.8,0.1-1.7,0.2-2.7,0.3
				c-1,0-2,0.1-2.9,0.1c-1.5,0-2.9-0.1-4.2-0.3c-1.3-0.2-2.5-0.6-3.5-1.2c-1-0.6-1.8-1.4-2.4-2.5s-0.9-2.5-0.9-4.3v-20.7H325v-6.4
				h5.8v-10.5h9.6v10.5h6.9V155.3z M299.9,161.8v-6.4h5.8v-2.7c0-3.1,1-5.7,2.9-7.7s4.9-3,8.8-3c0.9,0,1.7,0,2.6,0.1
				s1.7,0.1,2.5,0.2v7.2c-1.1-0.1-2.3-0.2-3.5-0.2c-1.3,0-2.2,0.3-2.8,0.9s-0.8,1.6-0.8,3.1v2.1h6.6v6.4h-6.6v28.6h-9.6v-28.6
				L299.9,161.8L299.9,161.8z M295.7,190.4H286v-35h9.6v35H295.7z M286,142h9.6v7.9H286V142z M280.7,155.3v6.4h-7v17.4
				c0,1.6,0.3,2.7,0.8,3.3c0.5,0.5,1.6,0.8,3.3,0.8c0.5,0,1.1,0,1.6-0.1c0.5,0,1-0.1,1.4-0.2v7.5c-0.8,0.1-1.7,0.2-2.7,0.3
				c-1,0-2,0.1-2.9,0.1c-1.5,0-2.9-0.1-4.2-0.3c-1.3-0.2-2.5-0.6-3.5-1.2c-1-0.6-1.8-1.4-2.4-2.5s-0.9-2.5-0.9-4.3v-20.7h-5.8v-6.4
				h5.8v-10.5h9.6v10.5h6.9V155.3z M226.1,178.4c0.6,1.1,1.4,2,2.3,2.7c1,0.7,2.1,1.2,3.4,1.6c1.3,0.3,2.7,0.5,4.1,0.5
				c0.9,0,2-0.1,3.1-0.2c1.1-0.2,2.1-0.5,3-0.9c0.9-0.5,1.7-1.1,2.4-1.9c0.6-0.8,0.9-1.8,0.9-3c0-1.3-0.4-2.4-1.3-3.2
				c-0.8-0.8-1.9-1.5-3.3-2c-1.4-0.5-2.9-1-4.6-1.4c-1.7-0.4-3.5-0.9-5.2-1.4c-1.8-0.5-3.6-1-5.3-1.7s-3.3-1.5-4.6-2.5
				c-1.4-1-2.5-2.3-3.3-3.9c-0.8-1.6-1.3-3.4-1.3-5.7c0-2.5,0.5-4.6,1.6-6.5c1.1-1.8,2.5-3.4,4.2-4.6c1.7-1.2,3.7-2.1,5.8-2.7
				c2.2-0.6,4.3-0.9,6.5-0.9c2.5,0,5,0.3,7.3,0.8c2.3,0.6,4.4,1.5,6.2,2.7c1.8,1.3,3.2,2.9,4.3,4.8c1.1,2,1.6,4.3,1.6,7.2h-10.3
				c-0.1-1.4-0.4-2.6-0.9-3.6c-0.5-0.9-1.2-1.7-2.1-2.2c-0.9-0.5-1.8-0.9-2.9-1.2c-1.1-0.2-2.3-0.3-3.6-0.3c-0.9,0-1.7,0.1-2.6,0.3
				c-0.9,0.2-1.6,0.5-2.3,0.9c-0.7,0.5-1.3,1-1.7,1.7c-0.5,0.7-0.7,1.5-0.7,2.6c0,0.9,0.2,1.7,0.5,2.3c0.4,0.6,1.1,1.1,2.1,1.6
				c1.1,0.5,2.5,1,4.4,1.5s4.3,1.1,7.4,1.9c0.9,0.2,2.2,0.5,3.8,1s3.2,1.2,4.8,2.3c1.6,1,2.9,2.4,4.1,4.2c1.2,1.7,1.7,4,1.7,6.7
				c0,2.2-0.4,4.3-1.3,6.2c-0.9,1.9-2.1,3.5-3.8,4.9s-3.8,2.5-6.3,3.2c-2.5,0.8-5.4,1.2-8.7,1.2c-2.7,0-5.3-0.3-7.8-1
				s-4.7-1.7-6.6-3.1c-1.9-1.4-3.4-3.2-4.6-5.4c-1.1-2.2-1.7-4.7-1.6-7.7h10.3C225.3,175.9,225.6,177.3,226.1,178.4"/>
		</g>
	</g>
	<g>
		<g>
			<path class="st0" d="M456.8,98.8c0,0.5-0.1,1.3-0.2,2.2c-0.1,0.9-0.4,1.8-0.9,2.7s-1.3,1.6-2.3,2.3c-1,0.6-2.5,0.9-4.4,0.9
				c-0.8,0-1.5-0.1-2.2-0.2s-1.4-0.4-1.9-0.7c-0.5-0.3-1-0.8-1.3-1.4s-0.5-1.3-0.5-2.2c0-0.9,0.2-1.6,0.5-2.2s0.7-1.1,1.3-1.5
				c0.5-0.4,1.1-0.7,1.8-0.9c0.7-0.2,1.4-0.4,2.1-0.5c0.8-0.1,1.5-0.2,2.3-0.3c0.8-0.1,1.5-0.2,2.2-0.3c0.7-0.1,1.4-0.3,2-0.5
				s1.1-0.5,1.5-0.8V98.8z M444.2,88.1c0.2-1.9,0.8-3.3,1.9-4.1c1.1-0.8,2.6-1.2,4.5-1.2c0.9,0,1.7,0.1,2.4,0.2
				c0.7,0.1,1.4,0.3,2,0.7c0.6,0.3,1,0.8,1.4,1.4c0.3,0.6,0.5,1.4,0.5,2.5c0,1-0.2,1.8-0.9,2.3c-0.6,0.5-1.5,0.9-2.6,1.2
				c-1.1,0.3-2.3,0.5-3.7,0.6c-1.4,0.1-2.8,0.3-4.3,0.5c-1.4,0.2-2.9,0.5-4.3,0.9s-2.7,1-3.8,1.7c-1.1,0.8-2,1.8-2.7,3.1
				c-0.7,1.3-1.1,2.9-1.1,4.9c0,1.8,0.3,3.4,0.9,4.7c0.6,1.3,1.5,2.4,2.5,3.3c1.1,0.9,2.3,1.5,3.8,1.9c1.4,0.4,3,0.6,4.7,0.6
				c2.2,0,4.3-0.3,6.4-0.9s3.9-1.7,5.4-3.3c0,0.6,0.1,1.2,0.2,1.7c0.1,0.6,0.3,1.1,0.4,1.7h9.8c-0.5-0.7-0.8-1.8-0.9-3.3
				c-0.2-1.4-0.3-3-0.3-4.5V86.3c0-2.1-0.5-3.8-1.4-5.1c-0.9-1.3-2.2-2.3-3.7-3s-3.1-1.2-4.9-1.5c-1.8-0.2-3.6-0.4-5.4-0.4
				c-1.9,0-3.9,0.2-5.8,0.6s-3.6,1-5.2,1.9c-1.5,0.9-2.8,2.1-3.8,3.6s-1.6,3.4-1.7,5.6L444.2,88.1L444.2,88.1z M417.2,77.3v6.5h0.1
				c0.5-1.1,1.1-2.1,1.8-3c0.8-0.9,1.6-1.7,2.6-2.4c1-0.7,2.1-1.2,3.2-1.5c1.1-0.4,2.3-0.5,3.5-0.5c0.6,0,1.3,0.1,2.1,0.3v8.9
				c-0.5-0.1-1-0.2-1.6-0.2c-0.6-0.1-1.2-0.1-1.8-0.1c-1.8,0-3.3,0.3-4.5,0.9s-2.2,1.4-2.9,2.4c-0.7,1-1.3,2.2-1.6,3.6
				c-0.3,1.4-0.5,2.8-0.5,4.4v15.8H408v-35h9.2V77.3z M400.4,112.4h-9.6v-35h9.6V112.4z M390.7,64h9.6v7.9h-9.6V64z M359.8,64v18.2
				h0.2c1.2-2,2.8-3.5,4.7-4.4s3.8-1.4,5.6-1.4c2.6,0,4.7,0.4,6.3,1.1c1.6,0.7,2.9,1.7,3.9,2.9c0.9,1.2,1.6,2.8,2,4.5
				c0.4,1.8,0.6,3.8,0.6,5.9v21.6h-9.6V92.6c0-2.9-0.5-5-1.4-6.5c-0.9-1.4-2.5-2.1-4.8-2.1c-2.6,0-4.5,0.8-5.7,2.3
				c-1.2,1.6-1.8,4.1-1.8,7.7v18.4h-9.6V64H359.8z M327.8,83.6c-1.5,0-2.8,0.4-3.9,1.1c-1,0.7-1.9,1.6-2.5,2.7
				c-0.7,1.1-1.1,2.3-1.4,3.7c-0.3,1.3-0.4,2.7-0.4,4s0.1,2.6,0.4,3.9s0.7,2.5,1.3,3.6c0.6,1.1,1.4,1.9,2.5,2.6c1,0.7,2.3,1,3.8,1
				c2.3,0,4.1-0.6,5.3-1.9c1.2-1.3,2-3,2.3-5.2h9.3c-0.6,4.7-2.4,8.2-5.4,10.6s-6.8,3.7-11.5,3.7c-2.6,0-5-0.4-7.2-1.3
				s-4.1-2.1-5.6-3.7s-2.7-3.5-3.6-5.7s-1.3-4.6-1.3-7.2c0-2.7,0.4-5.2,1.2-7.6c0.8-2.3,2-4.3,3.5-6s3.4-3,5.6-4
				c2.2-0.9,4.7-1.4,7.6-1.4c2.1,0,4.1,0.3,6,0.8s3.6,1.4,5.1,2.5s2.7,2.5,3.7,4.1c0.9,1.6,1.5,3.6,1.6,5.9h-9.4
				C334.3,85.6,331.9,83.6,327.8,83.6 M282.9,103.6c0.4,0.7,1,1.4,1.7,1.8c0.7,0.5,1.5,0.8,2.3,1.1c0.9,0.2,1.8,0.3,2.7,0.3
				c0.7,0,1.4-0.1,2.1-0.2c0.7-0.2,1.4-0.4,2-0.7s1.1-0.8,1.5-1.4s0.6-1.3,0.6-2.1c0-1.4-1-2.5-2.9-3.3c-1.9-0.7-4.6-1.4-8-2.2
				c-1.4-0.3-2.8-0.7-4.1-1.1c-1.3-0.4-2.5-1-3.6-1.7c-1-0.7-1.9-1.6-2.5-2.6c-0.6-1.1-0.9-2.4-0.9-3.9c0-2.3,0.4-4.1,1.3-5.6
				c0.9-1.4,2-2.6,3.5-3.4c1.4-0.8,3.1-1.4,4.9-1.8c1.8-0.3,3.7-0.5,5.6-0.5s3.7,0.2,5.5,0.5c1.8,0.4,3.4,1,4.8,1.8
				c1.4,0.9,2.6,2,3.5,3.4s1.5,3.2,1.7,5.4h-9.1c-0.1-1.9-0.8-3.1-2.1-3.8c-1.3-0.7-2.8-1-4.5-1c-0.5,0-1.1,0-1.8,0.1
				c-0.6,0.1-1.2,0.2-1.7,0.4c-0.5,0.2-1,0.6-1.3,1c-0.4,0.4-0.5,1-0.5,1.7c0,0.9,0.3,1.6,0.9,2.1s1.5,1,2.5,1.3s2.2,0.6,3.5,0.9
				s2.6,0.6,4,0.9s2.8,0.7,4.1,1.2c1.3,0.5,2.5,1.1,3.6,1.8c1,0.7,1.9,1.7,2.5,2.8c0.6,1.1,0.9,2.5,0.9,4.1c0,2.3-0.5,4.2-1.4,5.8
				c-0.9,1.6-2.1,2.8-3.6,3.8c-1.5,0.9-3.2,1.6-5.1,2s-3.9,0.6-5.9,0.6s-4-0.2-6-0.6c-1.9-0.4-3.7-1.1-5.2-2s-2.8-2.2-3.7-3.8
				c-1-1.6-1.5-3.5-1.6-5.9h9.1C282.3,102,282.5,102.9,282.9,103.6 M236.5,72.9V64h39.6v8.9h-14.5v39.4H251V72.9H236.5z
				 M190.6,103.6c0.4,0.7,1,1.4,1.7,1.8c0.7,0.5,1.5,0.8,2.3,1.1c0.9,0.2,1.8,0.3,2.7,0.3c0.7,0,1.4-0.1,2.1-0.2
				c0.7-0.2,1.4-0.4,2-0.7s1.1-0.8,1.5-1.4s0.6-1.3,0.6-2.1c0-1.4-1-2.5-2.9-3.3c-1.9-0.7-4.6-1.4-8-2.2c-1.4-0.3-2.8-0.7-4.1-1.1
				s-2.5-1-3.6-1.7c-1-0.7-1.9-1.6-2.5-2.6c-0.6-1.1-0.9-2.4-0.9-3.9c0-2.3,0.4-4.1,1.3-5.6c0.9-1.4,2-2.6,3.5-3.4
				c1.4-0.8,3.1-1.4,4.9-1.8c1.8-0.3,3.7-0.5,5.6-0.5c1.9,0,3.7,0.2,5.5,0.5c1.8,0.4,3.4,1,4.8,1.8c1.4,0.9,2.6,2,3.5,3.4
				s1.5,3.2,1.7,5.4h-9.1c-0.1-1.9-0.8-3.1-2.1-3.8c-1.3-0.7-2.8-1-4.5-1c-0.5,0-1.1,0-1.8,0.1c-0.6,0.1-1.2,0.2-1.7,0.4
				c-0.5,0.2-1,0.6-1.3,1c-0.4,0.4-0.5,1-0.5,1.7c0,0.9,0.3,1.6,0.9,2.1c0.6,0.5,1.5,1,2.5,1.3s2.2,0.6,3.5,0.9s2.6,0.6,4,0.9
				s2.8,0.7,4.1,1.2s2.5,1.1,3.6,1.8c1,0.7,1.9,1.7,2.5,2.8c0.6,1.1,0.9,2.5,0.9,4.1c0,2.3-0.5,4.2-1.4,5.8
				c-0.9,1.6-2.1,2.8-3.6,3.8c-1.5,0.9-3.2,1.6-5.1,2c-1.9,0.4-3.9,0.6-5.9,0.6s-4-0.2-6-0.6c-1.9-0.4-3.7-1.1-5.2-2
				s-2.8-2.2-3.7-3.8c-1-1.6-1.5-3.5-1.6-5.9h9.1C190,102,190.2,102.9,190.6,103.6 M165.8,112.4v-4.9h-0.2c-1.2,2-2.8,3.5-4.7,4.4
				s-3.9,1.4-6,1.4c-2.6,0-4.7-0.3-6.3-1c-1.7-0.7-2.9-1.6-3.9-2.9c-0.9-1.2-1.6-2.8-2-4.5c-0.4-1.8-0.6-3.8-0.6-5.9V77.3h9.6v19.8
				c0,2.9,0.5,5,1.4,6.5c0.9,1.4,2.5,2.1,4.8,2.1c2.6,0,4.5-0.8,5.7-2.3c1.2-1.6,1.8-4.1,1.8-7.7V77.3h9.6v35L165.8,112.4
				L165.8,112.4z M125.1,98.8c0,0.5-0.1,1.3-0.2,2.2c-0.1,0.9-0.4,1.8-0.9,2.7c-0.5,0.9-1.3,1.6-2.3,2.3s-2.5,0.9-4.4,0.9
				c-0.8,0-1.5-0.1-2.2-0.2s-1.4-0.4-1.9-0.7c-0.5-0.3-1-0.8-1.3-1.4s-0.5-1.3-0.5-2.2c0-0.9,0.2-1.6,0.5-2.2s0.7-1.1,1.3-1.5
				c0.5-0.4,1.1-0.7,1.8-0.9c0.7-0.2,1.4-0.4,2.1-0.5c0.8-0.1,1.5-0.2,2.3-0.3c0.8-0.1,1.5-0.2,2.2-0.3c0.7-0.1,1.4-0.3,2-0.5
				s1.1-0.5,1.5-0.8V98.8z M112.5,88.1c0.2-1.9,0.8-3.3,1.9-4.1c1.1-0.8,2.6-1.2,4.5-1.2c0.9,0,1.7,0.1,2.4,0.2
				c0.7,0.1,1.4,0.3,2,0.7c0.6,0.3,1,0.8,1.4,1.4c0.3,0.6,0.5,1.4,0.5,2.5c0,1-0.2,1.8-0.9,2.3c-0.6,0.5-1.5,0.9-2.6,1.2
				c-1.1,0.3-2.3,0.5-3.7,0.6c-1.4,0.1-2.8,0.3-4.3,0.5c-1.4,0.2-2.9,0.5-4.3,0.9s-2.7,1-3.8,1.7c-1.1,0.8-2,1.8-2.7,3.1
				c-0.7,1.3-1.1,2.9-1.1,4.9c0,1.8,0.3,3.4,0.9,4.7c0.6,1.3,1.5,2.4,2.5,3.3c1.1,0.9,2.3,1.5,3.8,1.9s3,0.6,4.7,0.6
				c2.2,0,4.3-0.3,6.4-0.9s3.9-1.7,5.4-3.3c0,0.6,0.1,1.2,0.2,1.7c0.1,0.6,0.3,1.1,0.4,1.7h9.8c-0.5-0.7-0.8-1.8-0.9-3.3
				c-0.2-1.4-0.3-3-0.3-4.5V86.3c0-2.1-0.5-3.8-1.4-5.1c-0.9-1.3-2.2-2.3-3.7-3s-3.1-1.2-4.9-1.5c-1.8-0.2-3.6-0.4-5.4-0.4
				c-1.9,0-3.9,0.2-5.8,0.6s-3.6,1-5.2,1.9c-1.5,0.9-2.8,2.1-3.8,3.6s-1.6,3.4-1.7,5.6L112.5,88.1L112.5,88.1z M95.6,112.4H86V64
				h9.6V112.4z M47.9,64v20l18.9-20h13.3l-19,19.1l20.7,29.3H68.5L54,90.6l-6.1,6.2v15.6H37.2V64H47.9z"/>
		</g>
	</g>
	<g>
		<g>
			<rect x="529.8" y="32.2" class="st0" width="4" height="253.8"/>
		</g>
	</g>
</g>
<g>
	<path class="st1" d="M653.8,65.8h-53l56.1,56.1c1.1-0.7,2.3-1.1,3.6-1.1V71.2C657.2,71.2,654.5,68.9,653.8,65.8z"/>
	<path class="st1" d="M780.5,191.2c0,0,0-0.1,0-0.1h-49.7c0,0,0,0.1,0,0.1c0,1.3-0.4,2.5-1,3.6l56.1,56.1v-53
		C782.8,197.2,780.5,194.5,780.5,191.2z"/>
	<path class="st2" d="M717,127.7c0-3.8,3.1-6.9,6.9-6.9c1.4,0,2.7,0.4,3.8,1.1L781.6,68c-0.4-0.7-0.7-1.4-0.9-2.2h-50.1
		c-0.7,3.1-3.4,5.4-6.7,5.4s-6-2.3-6.7-5.4h-49.9c-0.7,3.1-3.4,5.4-6.7,5.4v49.6c3.8,0,6.9,3.1,6.9,6.9c0,1.3-0.4,2.6-1.1,3.6l26,26
		l25.8-25.8C717.4,130.4,717,129.1,717,127.7z"/>
	<path class="st2" d="M690.2,159.5l-26-26c-1.1,0.7-2.4,1.1-3.7,1.1v49.7c1.4,0,2.7,0.4,3.7,1.1L690.2,159.5z"/>
	<path class="st2" d="M785.9,184.5v-50c-3.1-0.7-5.4-3.4-5.4-6.7c0-3.3,2.3-6,5.4-6.7V71c-0.8-0.2-1.5-0.5-2.2-0.9l-53.9,54
		c0.6,1.1,1,2.3,1,3.6c0,3.8-3.1,6.9-6.9,6.9c-1.3,0-2.6-0.4-3.6-1l-25.9,25.9l25.9,25.9c1-0.6,2.3-1,3.6-1c3.8,0,6.8,3,6.9,6.8
		h49.7C780.6,187.9,782.8,185.2,785.9,184.5z"/>
	<path class="st2" d="M692.3,161.6l-26,26c0.6,1,1,2.2,1,3.5H717c0-1.4,0.4-2.6,1.1-3.7L692.3,161.6z"/>
	<path class="st0" d="M794.3,127.7c0-3.3-2.3-6-5.4-6.7V71c3.1-0.7,5.4-3.4,5.4-6.7c0-3.8-3.1-6.9-6.9-6.9c-3.3,0-6,2.3-6.7,5.4h-50
		c-0.7-3.1-3.4-5.4-6.7-5.4c-3.3,0-6,2.3-6.7,5.4h-49.9c-0.7-3.1-3.4-5.4-6.7-5.4c-3.3,0-6,2.3-6.7,5.4h-60.3l61.2,61.2
		c-0.7,1.1-1.1,2.4-1.1,3.7c0,3.8,3.1,6.9,6.9,6.9c1.4,0,2.7-0.4,3.7-1.1l26,26l-26,26c-1.1-0.7-2.4-1.1-3.7-1.1
		c-3.8,0-6.9,3.1-6.9,6.9c0,1.4,0.4,2.7,1.1,3.8l-59.9,59.9l-1,1.1l2.1,2.1l61-61c1.1,0.7,2.3,1,3.6,1c3.8,0,6.9-3.1,6.9-6.9
		c0,0,0-0.1,0-0.1c0-1.3-0.4-2.5-1-3.5l26-26l25.8,25.8c-0.7,1.1-1.1,2.3-1.1,3.7c0,0,0,0.1,0,0.1c0,3.8,3.1,6.9,6.9,6.9
		c1.4,0,2.7-0.4,3.8-1.2l61.2,61.2v-60.2c3.1-0.7,5.4-3.4,5.4-6.7s-2.3-6-5.4-6.7v-50C792,133.7,794.3,131,794.3,127.7z
		 M692.3,157.3l-26-26c0.7-1.1,1.1-2.3,1.1-3.6c0-3.8-3.1-6.9-6.9-6.9c-1.3,0-2.6,0.4-3.6,1.1l-56.1-56.1h53
		c0.7,3.1,3.4,5.4,6.7,5.4s6-2.3,6.7-5.4h49.9c0.7,3.1,3.4,5.4,6.7,5.4s6-2.3,6.7-5.4h50.1c0.2,0.8,0.5,1.5,0.9,2.2l-53.9,53.9
		c-1.1-0.7-2.4-1.1-3.8-1.1c-3.8,0-6.9,3.1-6.9,6.9c0,1.4,0.4,2.7,1.1,3.8L692.3,157.3z M785.9,250.9l-56.1-56.1c0.6-1,1-2.3,1-3.6
		c0,0,0-0.1,0-0.1c-0.1-3.8-3.1-6.8-6.9-6.8c-1.3,0-2.5,0.4-3.6,1l-25.9-25.9l25.9-25.9c1.1,0.6,2.3,1,3.6,1c3.8,0,6.9-3.1,6.9-6.9
		c0-1.3-0.4-2.6-1-3.6l53.9-54c0.7,0.4,1.4,0.7,2.2,0.9v50c-3.1,0.7-5.4,3.4-5.4,6.7c0,3.3,2.3,6,5.4,6.7v50
		c-3.1,0.7-5.3,3.4-5.4,6.6c0,0,0,0.1,0,0.1c0,3.3,2.3,6,5.4,6.7V250.9z"/>
</g>
</svg>
