<?xml version="1.0" encoding="UTF-8"?> <svg xmlns="http://www.w3.org/2000/svg" width="146" height="80" viewBox="0 0 146 80" fill="none"><path d="M145.444 0.259857C145.443 0.212611 145.429 0.166574 145.404 0.126425C145.379 0.0862758 145.344 0.0534473 145.302 0.0312762C145.26 0.00910513 145.213 -0.00161757 145.166 0.000197486C145.119 0.00201254 145.073 0.0163009 145.033 0.0416102L81.0361 40.3901C80.9972 40.4141 80.9652 40.4476 80.9429 40.4874C80.9207 40.5273 80.909 40.5721 80.909 40.6177C80.909 40.6633 80.9207 40.7082 80.9429 40.748C80.9652 40.7878 80.9972 40.8213 81.0361 40.8453L145.326 79.8383C145.367 79.8632 145.414 79.8768 145.462 79.8777C145.51 79.8785 145.557 79.8666 145.598 79.8431C145.64 79.8196 145.675 79.7854 145.699 79.7441C145.723 79.7028 145.735 79.6558 145.735 79.6081L145.444 0.259857ZM138.271 66.7571L95.2154 40.6424C95.1727 40.616 95.1374 40.5791 95.113 40.5352C95.0886 40.4913 95.0757 40.442 95.0757 40.3918C95.0757 40.3416 95.0886 40.2922 95.113 40.2484C95.1374 40.2045 95.1727 40.1676 95.2154 40.1411L138.085 13.1126C138.13 13.0847 138.181 13.0693 138.234 13.0678C138.286 13.0664 138.339 13.079 138.385 13.1043C138.431 13.1297 138.47 13.1668 138.497 13.212C138.524 13.2572 138.539 13.3088 138.539 13.3615L138.737 66.4996C138.739 66.554 138.726 66.6079 138.699 66.6552C138.672 66.7025 138.632 66.7415 138.585 66.7678C138.537 66.7941 138.483 66.8067 138.428 66.8042C138.374 66.8017 138.321 66.7842 138.276 66.7537L138.271 66.7571Z" fill="#F2DC9E"></path><path d="M135.806 61.4526H135.207L129.757 58.184C128.638 59.1888 127.351 59.9898 125.955 60.5507C124.376 61.1611 122.695 61.461 121.002 61.4339C116.573 61.4339 112.759 60.5149 109.666 58.7058C106.618 56.9441 104.148 54.3382 102.553 51.2035C100.93 48.0407 100.107 44.3833 100.107 40.3287C100.107 36.2741 100.93 32.6167 102.553 29.4521C104.147 26.3173 106.618 23.7114 109.666 21.9499C112.761 20.1391 116.575 19.2218 121.002 19.2218C122.463 19.2012 123.914 19.4689 125.272 20.0095C126.512 20.5295 127.654 21.2598 128.645 22.1681L135.039 17.9294H135.617V32.881H134.84L134.792 32.7872C133.669 30.5371 132.406 28.3589 131.012 26.2654C129.74 24.3779 128.317 22.874 126.788 21.7947C125.258 20.7195 123.427 20.1544 121.555 20.18C119.921 20.18 118.554 20.7512 117.494 21.8851C116.433 23.019 115.562 24.5876 114.956 26.5109C114.307 28.6319 113.871 30.812 113.654 33.0191C113.147 37.8761 113.147 42.7727 113.654 47.6297C113.87 49.8415 114.306 52.0262 114.956 54.1516C115.562 56.0766 116.418 57.6333 117.494 58.7791C118.57 59.9249 119.921 60.4842 121.555 60.4842C123.34 60.4842 124.93 60.1551 126.281 59.5089C127.657 58.8433 128.898 57.9287 129.94 56.8115C131.072 55.5903 132.056 54.2409 132.874 52.7909C133.38 51.8581 133.816 50.8893 134.179 49.8924C134.437 49.241 134.701 48.5675 135.017 47.8804L135.063 47.7798H135.806V61.4526Z" fill="black"></path><path d="M8.62788 46.8556C7.58142 46.8803 6.53933 46.7127 5.55358 46.3612C4.71223 46.0383 3.91694 45.6067 3.18808 45.0773L1.82173 46.4771H0.947266V40.3543H1.85931C2.09192 41.3059 2.48152 42.2123 3.01217 43.0363C3.55787 43.8818 4.30562 44.5784 5.18808 45.0636C6.09899 45.5786 7.21883 45.836 8.54761 45.836C9.63727 45.836 10.5482 45.661 11.2803 45.3109C11.964 45.0017 12.5422 44.4997 12.9438 43.8667C13.3224 43.2591 13.5202 42.5566 13.5143 41.8411C13.5143 41.0829 13.339 40.4708 12.9883 40.0047C12.6308 39.5324 12.1612 39.1562 11.6219 38.9101C11.0504 38.643 10.4537 38.4333 9.84052 38.2843L8.04376 37.8461C6.79397 37.5392 5.58863 37.0739 4.45709 36.4616C3.47545 35.9369 2.64554 35.1689 2.04718 34.2314C1.47217 33.322 1.18752 32.1853 1.19321 30.8213C1.19321 29.3265 1.51487 28.0926 2.1582 27.1196C2.77796 26.1668 3.65974 25.4126 4.69791 24.9474C5.753 24.47 6.89907 24.2263 8.05743 24.233C8.85401 24.2211 9.64652 24.3486 10.399 24.6098C11.17 24.903 11.9089 25.2743 12.604 25.7181L13.7415 24.4938H14.6484V30.4411H13.7722C13.2029 28.5939 12.4434 27.2674 11.4938 26.4615C10.5442 25.6555 9.37596 25.252 7.98911 25.2509C7.20684 25.2411 6.4294 25.3746 5.69534 25.6447C5.05779 25.8706 4.48948 26.2571 4.04547 26.7667C3.6392 27.2471 3.42133 27.8584 3.43232 28.4871C3.40938 29.0462 3.59705 29.5937 3.95837 30.0216C4.3343 30.4388 4.80199 30.7633 5.32472 30.9696C5.91209 31.2107 6.5174 31.4057 7.13514 31.5528C7.77732 31.7074 8.39048 31.8529 8.97459 31.9893C10.2882 32.2745 11.5495 32.7617 12.7133 33.4334C13.6896 34.0073 14.4881 34.8393 15.0207 35.8376C15.5468 36.8299 15.8098 38.074 15.8098 39.5699C15.8098 41.8638 15.1915 43.6524 13.955 44.9357C12.7184 46.2191 10.9427 46.8591 8.62788 46.8556Z" fill="black"></path><path d="M26.0045 33.3567V34.2314H28.3956V39.8001C28.4084 40.7692 28.2654 41.734 27.972 42.6578C27.7489 43.4125 27.3544 44.1057 26.8192 44.6834C26.5992 44.9198 26.3324 45.108 26.0358 45.2359C25.7391 45.3639 25.419 45.4289 25.0959 45.4268C24.895 45.4411 24.6938 45.403 24.5121 45.3163C24.3303 45.2296 24.1743 45.0973 24.0591 44.9323C23.8314 44.6016 23.7175 44.0378 23.7175 43.2409V33.3516H17.4187V34.2263H19.6971V43.6143C19.6936 44.0515 19.7874 44.484 19.9717 44.8806C20.156 45.2772 20.4262 45.628 20.7628 45.9076C21.4733 46.5396 22.4224 46.8557 23.6099 46.8557C24.6071 46.8641 25.5886 46.6075 26.4537 46.1122C27.2584 45.683 27.8999 45.0019 28.2795 44.1736H28.3956V46.4771H32.4315V33.3567H26.0045Z" fill="black"></path><path d="M50.4144 36.286C49.8954 35.2972 49.1242 34.4626 48.1787 33.8665C47.2827 33.3043 46.2447 33.0086 45.1864 33.014C44.3554 32.9978 43.5346 33.1989 42.8055 33.5971C42.1682 33.9322 41.6362 34.4368 41.2684 35.055H41.1522V33.3635H34.7594V34.2382H37.1249V55.6265H41.1556V44.7857H41.2718C41.636 45.4008 42.1616 45.9049 42.7918 46.2435C43.5149 46.6432 44.3311 46.8444 45.1573 46.8267C46.2156 46.8319 47.2535 46.5362 48.1497 45.9741C49.098 45.3766 49.8734 44.5419 50.399 43.553C50.9895 42.4356 51.2835 41.1859 51.253 39.9229C51.2843 38.6595 50.9958 37.4086 50.4144 36.286ZM46.5152 43.5206C46.3683 44.3469 46.1343 44.9153 45.8132 45.2256C45.643 45.3836 45.443 45.5061 45.2248 45.5861C45.0066 45.666 44.7746 45.7017 44.5425 45.6911C43.5895 45.6911 42.7867 45.2637 42.1343 44.4089C41.4819 43.5541 41.1556 42.2031 41.1556 40.356V39.4796C41.1556 37.6336 41.4767 36.2826 42.1189 35.4267C42.7611 34.5707 43.5581 34.1433 44.51 34.1445C44.9833 34.125 45.4453 34.2922 45.7961 34.6099C46.1252 34.9225 46.3637 35.5011 46.5117 36.3457C46.6598 37.1903 46.7326 38.4003 46.7304 39.9757C46.7551 41.1612 46.6832 42.3467 46.5152 43.5206Z" fill="black"></path><path d="M65.5655 42.4532C64.9962 43.7036 64.2908 44.5783 63.4494 45.0773C62.5974 45.5846 61.6216 45.8471 60.6296 45.836C59.8906 45.836 59.3065 45.6803 58.8772 45.3688C58.448 45.0574 58.1462 44.4794 57.972 43.6348C57.7967 42.7891 57.709 41.5791 57.709 40.0047C57.709 39.6876 57.709 39.3892 57.721 39.1011H66.4417V38.7805C66.4694 37.6997 66.1912 36.633 65.639 35.7029C65.1108 34.8458 64.3521 34.154 63.4494 33.7063C62.4725 33.2288 61.3961 32.9892 60.3085 33.0072C58.8681 33.0072 57.6122 33.3425 56.5408 34.0132C55.5097 34.6418 54.6557 35.5219 54.0591 36.5707C53.4887 37.5601 53.1867 38.6808 53.183 39.8223C53.1806 40.7263 53.3698 41.6205 53.738 42.4464C54.1108 43.2875 54.6413 44.0497 55.3008 44.6919C55.9764 45.355 56.7684 45.8885 57.6373 46.2657C58.5349 46.6571 59.5049 46.8557 60.4844 46.8488C61.8514 46.8794 63.1904 46.46 64.2948 45.6553C65.374 44.8616 66.16 43.734 66.5305 42.4481L65.5655 42.4532ZM58.7611 34.494C58.9538 34.3071 59.1827 34.1615 59.4338 34.0662C59.685 33.9709 59.953 33.9279 60.2214 33.9398C61.6242 33.9398 62.325 34.7753 62.3239 36.4463V38.2349H57.7534C57.7821 37.614 57.85 36.9955 57.9567 36.3832C58.1206 35.492 58.3882 34.8623 58.7594 34.494H58.7611Z" fill="black"></path><path d="M69.9891 46.4805V34.2314H67.6236V33.3567H74.0199V35.6023H74.136C74.7782 34.5133 75.4614 33.8086 76.1855 33.488C76.7873 33.1961 77.4434 33.0323 78.1121 33.0072C79.0088 33.0072 79.6988 33.2357 80.1872 33.6892C80.6757 34.1427 80.9165 34.8009 80.9165 35.6568C80.9165 36.5128 80.7064 37.1044 80.288 37.4932C79.8641 37.884 79.3037 38.0933 78.7269 38.0763C78.1743 38.0815 77.6348 37.9074 77.1898 37.5801C76.7343 37.2505 76.5066 36.7549 76.5066 36.0933C76.482 35.7966 76.5481 35.4993 76.6962 35.2408C76.797 35.1258 76.8628 34.9844 76.8858 34.8333C76.886 34.8142 76.8824 34.7953 76.875 34.7777C76.8677 34.7601 76.8568 34.7442 76.8431 34.731C76.7863 34.6949 76.7186 34.6799 76.6518 34.6884C76.3409 34.6884 75.9686 34.8913 75.557 35.3005C75.1009 35.7634 74.7349 36.3069 74.4776 36.9032C74.172 37.5816 74.0176 38.3181 74.025 39.0618V46.4669L69.9891 46.4805Z" fill="black"></path></svg> 